<svg width="30" height="22" viewBox="0 0 30 22" fill="none" xmlns="http://www.w3.org/2000/svg">
<path d="M11.44 9.32C13.2 10.4933 14.08 12.1467 14.08 14.28C14.08 16.36 13.44 18.0133 12.16 19.24C10.9333 20.4667 9.36 21.08 7.44 21.08C5.57333 21.08 4 20.4933 2.72 19.32C1.49333 18.1467 0.88 16.6267 0.88 14.76C0.88 12.8933 1.46667 11.0533 2.64 9.24L8.48 0.759999H15.04L11.44 9.32ZM26.24 9.32C28 10.4933 28.88 12.1467 28.88 14.28C28.88 16.36 28.24 18.0133 26.96 19.24C25.7333 20.4667 24.16 21.08 22.24 21.08C20.3733 21.08 18.8 20.4933 17.52 19.32C16.2933 18.1467 15.68 16.6267 15.68 14.76C15.68 12.8933 16.2667 11.0533 17.44 9.24L23.28 0.759999H29.84L26.24 9.32Z" fill="black"/>
</svg>
