<svg width="32" height="32" viewBox="0 0 32 32" fill="none" xmlns="http://www.w3.org/2000/svg">
<g clip-path="url(#clip0_4066_12715)">
<path d="M7.02062 13.0194C8.26407 9.25151 11.805 6.54545 15.999 6.54545C18.2536 6.54545 20.2899 7.34545 21.8899 8.65454L26.5445 4C23.7081 1.52727 20.0718 0 15.999 0C9.69245 0 4.26269 3.59773 1.65234 8.8667L7.02062 13.0194Z" fill="#EA4335"/>
<path d="M21.3881 24.0168C19.935 24.955 18.0886 25.4545 16.0004 25.4545C11.8224 25.4545 8.2926 22.7691 7.03642 19.0238L1.65039 23.1133C4.25749 28.3915 9.68711 32 16.0004 32C19.9109 32 23.6476 30.6098 26.446 27.9994L21.3881 24.0168Z" fill="#34A853"/>
<path d="M26.4456 27.9995C29.3722 25.2695 31.2727 21.2049 31.2727 16C31.2727 15.0546 31.1273 14.0364 30.9091 13.0909H16V19.2728H24.5818C24.1584 21.3515 23.0217 22.9616 21.3876 24.0168L26.4456 27.9995Z" fill="#4A90E2"/>
<path d="M7.03598 19.0238C6.71777 18.0751 6.54545 17.0583 6.54545 16C6.54545 14.9577 6.71258 13.9557 7.0216 13.0194L1.65332 8.8667C0.582116 11.0139 0 13.4338 0 16C0 18.5594 0.593041 20.9736 1.64995 23.1133L7.03598 19.0238Z" fill="#FBBC05"/>
</g>
<defs>
<clipPath id="clip0_4066_12715">
<rect width="32" height="32" fill="white"/>
</clipPath>
</defs>
</svg>
