<svg width="818" height="569" viewBox="0 0 818 569" fill="none" xmlns="http://www.w3.org/2000/svg">
<path d="M683.469 87.4923L620.367 88.1067C617.401 73.5146 607.435 35.2275 616.41 24.7843C616.819 20.8537 618.729 17.2323 621.743 14.6738C624.757 12.1153 628.642 10.817 632.589 11.0491C642.37 -4.25038 658.661 -1.95327 669.671 7.60191C680.752 11.4229 684.93 18.2111 683.469 27.423C691.675 34.6015 693.189 43.3351 689.506 53.2767L683.469 87.4923Z" fill="#2F2E41"/>
<path d="M677.394 126.339L631.868 120.039L622.763 106.741C635.305 98.4262 639.744 86.8134 633.969 71.0437L665.487 70.3438C664.011 84.3869 668.658 95.2601 681.597 101.841L677.394 126.339Z" fill="#FFB9B9"/>
<path d="M621.104 536.701L619.363 560.483C619.285 561.56 619.437 562.641 619.811 563.654C620.184 564.666 620.77 565.588 621.529 566.356C622.288 567.124 623.202 567.721 624.211 568.107C625.22 568.492 626.299 568.658 627.377 568.593L639.601 567.853C640.168 567.819 640.72 567.66 641.218 567.388C641.716 567.117 642.148 566.739 642.484 566.282C642.819 565.824 643.05 565.299 643.159 564.742C643.268 564.186 643.254 563.612 643.116 563.062L636.331 535.94L621.104 536.701Z" fill="#E6E6E6"/>
<path d="M660.678 535.94L653.893 563.062C653.755 563.612 653.741 564.186 653.85 564.742C653.959 565.299 654.19 565.824 654.525 566.282C654.861 566.739 655.293 567.117 655.791 567.388C656.289 567.66 656.841 567.819 657.408 567.853L669.631 568.593C670.71 568.658 671.789 568.492 672.798 568.106C673.807 567.721 674.721 567.124 675.48 566.356C676.239 565.588 676.825 564.666 677.198 563.654C677.572 562.641 677.724 561.56 677.646 560.483L675.905 536.701L660.678 535.94Z" fill="#E6E6E6"/>
<path d="M676.694 540.002L660.198 538.348L643.775 362.918L637.568 537.783L621.361 537.203L594.046 295.024H698.406L676.694 540.002Z" fill="#1141D2"/>
<path d="M651.479 82.2428C668.886 82.2428 682.998 68.141 682.998 50.7455C682.998 33.3501 668.886 19.2483 651.479 19.2483C634.072 19.2483 619.961 33.3501 619.961 50.7455C619.961 68.141 634.072 82.2428 651.479 82.2428Z" fill="#FFB9B9"/>
<path d="M713.816 300.624L586.341 302.023C605.259 230.054 616.575 163.2 596.847 117.24L628.366 101.841C643.563 117.682 660.488 116.049 678.795 100.441L708.913 108.14C703.754 168.41 706.066 232.959 713.816 300.624Z" fill="#1141D2"/>
<path d="M551.321 226.43L630.467 257.927L648.162 263.128C648.954 263.361 649.784 263.431 650.603 263.335C651.423 263.239 652.214 262.978 652.93 262.569C653.646 262.159 654.272 261.609 654.77 260.952C655.268 260.294 655.628 259.543 655.828 258.743C656.179 257.341 656.021 255.86 655.383 254.562C654.745 253.265 653.668 252.235 652.343 251.655L633.969 246.028L578.637 213.831L590.194 183.384L566.029 170.435L551.321 226.43Z" fill="#FFB9B9"/>
<path d="M552.021 169.035C567.08 174.906 579.057 184.925 588.443 198.433L617.86 155.736L596.847 117.24L552.021 169.035Z" fill="#1141D2"/>
<path d="M687.002 45.6407C674.21 42.3469 661.633 41.8946 649.406 46.0726C641.618 49.8421 632.266 49.4947 621.864 46.3889V14.9641L678.018 16.4605L687.002 45.6407Z" fill="#2F2E41"/>
<path d="M630.204 189.732C627.729 189.734 625.357 190.718 623.607 192.467C621.857 194.216 620.872 196.587 620.869 199.06L624.554 276.141C624.557 278.614 625.541 280.985 627.291 282.734C629.041 284.483 631.414 285.467 633.889 285.469H676.016C678.491 285.467 680.864 284.483 682.614 282.734C684.364 280.985 685.349 278.614 685.351 276.141L689.036 199.06C689.033 196.587 688.049 194.216 686.299 192.467C684.549 190.718 682.176 189.734 679.701 189.732H630.204Z" fill="#3F3D56"/>
<path d="M749.732 220.607L680.745 248.058L675.541 250.129C675.375 250.194 675.209 250.249 675.034 250.304L657.596 255.432C655.367 256.085 652.281 253.084 650.476 251.013C649.582 250.015 649.075 248.73 649.048 247.39C649.021 246.051 649.475 244.746 650.328 243.713C650.569 243.435 650.834 243.18 651.121 242.949C651.793 242.426 652.584 242.078 653.424 241.936L670.843 238.512C671.468 238.389 672.068 238.165 672.621 237.849L680.746 233.117L722.926 208.576C724.099 207.894 724.992 206.819 725.446 205.541C725.9 204.263 725.885 202.866 725.404 201.598L717.353 180.379C716.859 179.081 716.855 177.647 717.342 176.346C717.828 175.045 718.772 173.966 719.997 173.309L733.335 166.166C734.097 165.757 734.943 165.526 735.807 165.491C736.671 165.456 737.532 165.617 738.325 165.963C739.118 166.308 739.822 166.829 740.384 167.486C740.946 168.143 741.352 168.919 741.571 169.756L753.15 213.832C753.506 215.183 753.355 216.618 752.725 217.866C752.096 219.114 751.031 220.089 749.732 220.607Z" fill="#FFB9B9"/>
<path d="M753.739 161.336C738.68 167.207 726.704 177.226 717.318 190.733L687.9 148.037L708.913 108.141L753.739 161.336Z" fill="#1141D2"/>
<path d="M672.455 78.7797C658.667 84.5113 644.209 84.2785 629.16 78.7797C633.539 71.3104 626.993 65.4604 623.633 57.9202L679.824 56.2515C675.527 62.8018 669.187 70.5408 672.455 78.7797Z" fill="white"/>
<path d="M679.229 57.4978L678.577 56.847L679.498 55.9264L685.001 49.5083L685.701 50.1067L680.174 56.5505L679.229 57.4978Z" fill="white"/>
<path d="M619.783 53.5964L619.193 54.304L624.72 58.9067L625.31 58.1992L619.783 53.5964Z" fill="white"/>
<path d="M680.817 62.9097L671.142 78.0974L671.92 78.5918L681.594 63.4042L680.817 62.9097Z" fill="white"/>
<path d="M620.797 62.9085L620.02 63.4028L629.692 78.592L630.47 78.0976L620.797 62.9085Z" fill="white"/>
<path d="M682.588 231.815V248.492L676.778 250.804C676.593 250.876 676.408 250.938 676.213 251L656.748 256.723C654.26 257.453 650.815 254.103 648.8 251.791C647.802 250.677 647.237 249.242 647.206 247.747C647.176 246.252 647.683 244.796 648.635 243.642C648.904 243.332 649.2 243.047 649.52 242.789C650.27 242.206 651.153 241.818 652.09 241.659L671.534 237.837C672.232 237.7 672.902 237.45 673.519 237.097L682.588 231.815Z" fill="white"/>
<path d="M691.007 172.329H687.678C687.678 125.279 677.984 92.4909 668.537 92.4909L667.705 89.1643C676.177 89.1643 681.579 102.811 684.618 114.259C688.738 129.779 691.007 150.402 691.007 172.329Z" fill="#3F3D56"/>
<path d="M614.444 160.686H611.115C611.115 117.596 620.876 90.8276 635.249 90.8276L634.417 94.1543C624.475 94.1543 614.444 114.727 614.444 160.686Z" fill="#3F3D56"/>
<path d="M689.343 181.478C693.939 181.478 697.665 177.754 697.665 173.161C697.665 168.568 693.939 164.845 689.343 164.845C684.746 164.845 681.021 168.568 681.021 173.161C681.021 177.754 684.746 181.478 689.343 181.478Z" fill="#3F3D56"/>
<path d="M601.129 180.646H597.8C597.8 168.723 604.52 159.023 612.779 159.023V162.35C606.355 162.35 601.129 170.557 601.129 180.646Z" fill="#3F3D56"/>
<path d="M627.759 180.646H624.43C624.43 170.557 619.204 162.35 612.779 162.35V159.023C621.039 159.023 627.759 168.723 627.759 180.646Z" fill="#3F3D56"/>
<path d="M626.095 184.804C627.933 184.804 629.424 183.315 629.424 181.478C629.424 179.64 627.933 178.151 626.095 178.151C624.256 178.151 622.766 179.64 622.766 181.478C622.766 183.315 624.256 184.804 626.095 184.804Z" fill="#3F3D56"/>
<path d="M599.464 184.804C601.303 184.804 602.793 183.315 602.793 181.478C602.793 179.64 601.303 178.151 599.464 178.151C597.626 178.151 596.135 179.64 596.135 181.478C596.135 183.315 597.626 184.804 599.464 184.804Z" fill="#3F3D56"/>
<path d="M198.301 69.6836L139.838 79.5773C138.394 79.8235 136.909 79.5256 135.672 78.7412C134.435 77.9569 133.533 76.7417 133.141 75.3311C128.917 60.0964 120.086 40.2222 128.66 30.2455C129.097 26.0483 131.137 22.1811 134.355 19.4491C137.573 16.7171 141.722 15.3306 145.937 15.5784C156.381 -0.758949 173.777 1.69401 185.534 11.8974C197.367 15.9776 201.828 23.2264 200.268 33.0632C205.38 37.5348 208.06 42.5714 208.625 48.0995C208.893 51.1758 208.502 54.2738 207.476 57.1868C206.451 60.0999 204.816 62.7609 202.68 64.9923L198.301 69.6836Z" fill="#2F2E41"/>
<path d="M189.212 115.679L143.89 113.015C148.331 102.827 150.105 93.017 148.333 83.7085H182.102C182.026 90.8555 185.585 103.219 189.212 115.679Z" fill="#9F616A"/>
<path d="M134.656 534.187L132.798 559.583C132.713 560.733 132.876 561.887 133.275 562.969C133.674 564.05 134.299 565.034 135.11 565.854C135.92 566.674 136.897 567.311 137.974 567.723C139.051 568.136 140.204 568.313 141.355 568.243L154.408 567.453C155.013 567.416 155.603 567.247 156.135 566.957C156.666 566.667 157.128 566.263 157.486 565.775C157.844 565.286 158.091 564.725 158.207 564.131C158.324 563.537 158.308 562.924 158.161 562.337L150.916 533.375L134.656 534.187Z" fill="#E6E6E6"/>
<path d="M176.915 533.375L169.67 562.337C169.523 562.924 169.507 563.537 169.624 564.131C169.74 564.725 169.987 565.286 170.345 565.775C170.703 566.263 171.165 566.667 171.697 566.957C172.229 567.247 172.818 567.416 173.423 567.453L186.476 568.243C187.627 568.313 188.78 568.136 189.857 567.723C190.934 567.311 191.911 566.674 192.721 565.854C193.532 565.034 194.157 564.05 194.556 562.969C194.955 561.887 195.118 560.733 195.034 559.583L193.175 534.187L176.915 533.375Z" fill="#E6E6E6"/>
<path d="M194.017 537.713L176.402 535.947L158.865 348.615L152.237 535.343L134.931 534.723L105.762 276.115H217.203L194.017 537.713Z" fill="#1141D2"/>
<path d="M166.108 94.4893C184.697 94.4893 199.765 79.4308 199.765 60.8552C199.765 42.2797 184.697 27.2212 166.108 27.2212C147.52 27.2212 132.452 42.2797 132.452 60.8552C132.452 79.4308 147.52 94.4893 166.108 94.4893Z" fill="#9F616A"/>
<path d="M204.041 44.7878C190.381 42.4105 176.951 42.084 163.895 45.0995C155.579 47.8202 145.591 47.5695 134.484 45.3278V22.6465L194.447 23.7266L204.041 44.7878Z" fill="#2F2E41"/>
<path d="M188.507 87.8423C173.783 93.9626 158.345 93.7141 142.275 87.8423C146.951 79.8661 139.961 73.6193 136.373 65.5676L196.376 63.7856C191.788 70.7803 185.017 79.0444 188.507 87.8423Z" fill="white"/>
<path d="M132.242 60.9743L131.651 61.6819L137.553 66.5966L138.143 65.889L132.242 60.9743Z" fill="white"/>
<path d="M197.464 70.9116L187.133 87.1299L187.91 87.6243L198.241 71.4061L197.464 70.9116Z" fill="white"/>
<path d="M133.317 70.911L132.54 71.4053L142.869 87.625L143.646 87.1307L133.317 70.911Z" fill="white"/>
<path d="M102.122 214.255L76.3508 198.27L98.3292 133.943C100.781 127.305 105.476 121.732 111.603 118.187L119.007 113.903L119.651 178.797L102.122 214.255Z" fill="#1141D2"/>
<path d="M213.517 245.497L209.705 212.861C209.501 195.635 212.434 178.981 219.426 163.635L222.981 115.679L183.88 99.6938C183.76 100.49 183.658 101.286 183.543 102.082L165.218 111.239L147.345 107.18L147.444 101.47L111.898 117.455C123.653 172.07 117.241 228.785 97.0264 295.775L143.856 308.571L144.245 286.1L185.98 283.121C186.41 290.412 186.756 297.573 186.956 304.575C210.506 313.239 211.315 313.096 232.772 300.69C224.227 282.736 217.461 264.054 213.517 245.497Z" fill="#1141D2"/>
<path d="M273.635 206.262L249.641 198.27L211.261 153.62L222.98 115.68L276.301 190.278L273.635 206.262Z" fill="#1141D2"/>
<path d="M198.438 240.829C198.831 242.551 199.89 244.047 201.385 244.989C202.88 245.931 204.687 246.242 206.411 245.855L226.779 241.245L223.835 228.253L203.467 232.862C201.743 233.252 200.244 234.311 199.301 235.805C198.358 237.299 198.048 239.106 198.438 240.829V240.829Z" fill="#E6E6E6"/>
<path d="M216.76 225.8L228.313 247.114C247.744 241.698 264.585 224.624 280.744 204.486L276.301 190.277L248.752 197.382L216.76 225.8Z" fill="#1141D2"/>
<path d="M66.1309 158.944L88.309 162.901L139.002 234.932L112.072 228.599L66.1309 158.944Z" fill="#E6E6E6"/>
<path d="M62.1973 158.062C61.8594 158.067 61.529 158.163 61.2407 158.339C60.9524 158.516 60.7169 158.766 60.5587 159.065C60.4005 159.363 60.3255 159.699 60.3415 160.036C60.3574 160.373 60.4638 160.7 60.6495 160.983L108.034 232.828C108.298 233.23 108.707 233.515 109.175 233.625L131.222 238.809C131.593 238.896 131.983 238.868 132.339 238.729C132.694 238.591 132.999 238.347 133.213 238.031C133.427 237.715 133.54 237.341 133.536 236.959C133.533 236.578 133.413 236.206 133.193 235.894L81.1683 161.97C81.0272 161.769 80.8478 161.597 80.6403 161.465C80.4328 161.333 80.2012 161.243 79.9589 161.201L62.5527 158.094C62.4354 158.073 62.3165 158.062 62.1973 158.062Z" fill="#3F3D56"/>
<path d="M91.7559 209.431L93.0728 222.687L113.854 220.626C115.613 220.451 117.231 219.585 118.351 218.219C119.472 216.853 120.003 215.098 119.828 213.34C119.654 211.582 118.788 209.965 117.42 208.846C116.053 207.726 114.297 207.195 112.538 207.369L91.7559 209.431Z" fill="#E6E6E6"/>
<path d="M73.6853 207.895C73.7155 212.416 75.5321 216.74 78.7392 219.928C81.9464 223.115 86.2842 224.907 90.8073 224.912H94.2244L96.7121 204.194L76.1144 196.784L73.6853 207.895Z" fill="#1141D2"/>
<path d="M194.735 66.0775L194.083 65.4267L195.067 64.4435L200.945 57.5881L201.644 58.1865L195.742 65.0676L194.735 66.0775Z" fill="white"/>
<path d="M818 567.159H0V569H818V567.159Z" fill="#3F3D56"/>
<path d="M312.277 566.238H505.723V331.758C505.723 319.342 493.485 309.241 478.443 309.241H339.557C324.515 309.241 312.277 319.342 312.277 331.758V566.238Z" fill="#E6E6E6"/>
<path d="M327.016 556.542H490.984V357.792C490.984 347.268 480.611 338.706 467.861 338.706H350.139C337.388 338.706 327.016 347.268 327.016 357.792V556.542Z" fill="white"/>
<path d="M310.816 290.993C306.034 290.993 302.144 294.204 302.144 298.15V318.811C302.144 322.758 306.034 325.969 310.816 325.969H507.185C511.966 325.969 515.856 322.758 515.856 318.811V298.15C515.856 294.204 511.966 290.993 507.185 290.993H310.816Z" fill="#3F3D56"/>
<path d="M351.133 531.057C348.888 531.064 346.737 531.958 345.15 533.544C343.562 535.13 342.668 537.28 342.661 539.523C342.668 541.766 343.562 543.916 345.15 545.502C346.737 547.089 348.888 547.983 351.133 547.989H366.99V531.057H351.133Z" fill="#3F3D56"/>
<path d="M381.544 531.057H366.121V547.989H381.544C383.789 547.983 385.94 547.089 387.527 545.502C389.114 543.916 390.009 541.766 390.016 539.523C390.009 537.28 389.114 535.13 387.527 533.544C385.94 531.958 383.789 531.064 381.544 531.057Z" fill="#1141D2"/>
<path opacity="0.2" d="M387.072 533.131C388.408 534.662 389.145 536.624 389.147 538.655C389.14 540.898 388.246 543.048 386.658 544.634C385.071 546.22 382.92 547.114 380.675 547.121H366.121V547.989H381.544C383.789 547.983 385.94 547.089 387.527 545.502C389.114 543.916 390.009 541.767 390.016 539.523C390.014 538.309 389.75 537.109 389.242 536.006C388.734 534.903 387.994 533.922 387.072 533.131Z" fill="black"/>
<path d="M422.69 403.536C421.145 401.908 419.019 400.958 416.775 400.891C414.531 400.825 412.352 401.649 410.714 403.183C409.085 404.727 408.134 406.852 408.068 409.094C408.001 411.336 408.826 413.514 410.361 415.151L421.238 426.682L433.567 415.067L422.69 403.536Z" fill="#3F3D56"/>
<path d="M443.55 425.651L432.971 414.436L420.642 426.05L431.221 437.265C432.765 438.893 434.892 439.844 437.136 439.91C439.379 439.976 441.558 439.152 443.196 437.618C444.825 436.075 445.777 433.95 445.843 431.707C445.909 429.465 445.085 427.288 443.55 425.651Z" fill="#1141D2"/>
<path opacity="0.2" d="M445.832 431.093C445.634 433.115 444.71 434.996 443.233 436.391C441.595 437.925 439.416 438.749 437.172 438.683C434.928 438.616 432.802 437.665 431.257 436.038L421.274 425.454L420.642 426.05L431.221 437.265C432.765 438.893 434.892 439.844 437.136 439.91C439.379 439.976 441.558 439.152 443.196 437.618C444.079 436.784 444.772 435.769 445.227 434.643C445.681 433.517 445.888 432.306 445.832 431.093Z" fill="black"/>
<path d="M377.553 430.232C376.008 428.605 373.882 427.654 371.638 427.587C369.394 427.521 367.215 428.345 365.577 429.879C363.948 431.423 362.996 433.548 362.93 435.79C362.864 438.032 363.688 440.21 365.223 441.847L376.1 453.378L388.43 441.763L377.553 430.232Z" fill="#3F3D56"/>
<path d="M398.412 452.347L387.833 441.132L375.504 452.746L386.083 463.961C387.628 465.589 389.754 466.54 391.998 466.606C394.242 466.672 396.421 465.849 398.059 464.315C399.688 462.771 400.639 460.646 400.706 458.404C400.772 456.161 399.948 453.984 398.412 452.347Z" fill="#1141D2"/>
<path opacity="0.2" d="M400.695 457.789C400.496 459.811 399.573 461.692 398.095 463.087C396.457 464.621 394.278 465.445 392.035 465.379C389.791 465.312 387.664 464.362 386.12 462.734L376.137 452.15L375.504 452.746L386.083 463.961C387.628 465.589 389.754 466.54 391.998 466.606C394.242 466.672 396.421 465.848 398.059 464.314C398.942 463.48 399.634 462.465 400.089 461.339C400.544 460.213 400.751 459.002 400.695 457.789Z" fill="black"/>
<path d="M422.69 455.087C421.145 453.46 419.019 452.509 416.775 452.442C414.531 452.376 412.352 453.2 410.714 454.734C409.085 456.278 408.134 458.403 408.068 460.645C408.001 462.887 408.826 465.065 410.361 466.702L421.238 478.233L433.567 466.618L422.69 455.087Z" fill="#3F3D56"/>
<path d="M443.55 477.202L432.971 465.987L420.642 477.601L431.221 488.816C432.765 490.444 434.892 491.395 437.136 491.461C439.379 491.527 441.558 490.704 443.196 489.17C444.825 487.626 445.777 485.501 445.843 483.259C445.909 481.016 445.085 478.839 443.55 477.202Z" fill="#1141D2"/>
<path opacity="0.2" d="M445.832 482.644C445.634 484.666 444.71 486.547 443.233 487.942C441.595 489.476 439.416 490.3 437.172 490.234C434.928 490.167 432.802 489.217 431.257 487.589L421.274 477.005L420.642 477.601L431.221 488.816C432.765 490.444 434.892 491.395 437.136 491.461C439.379 491.527 441.558 490.703 443.196 489.169C444.079 488.335 444.772 487.32 445.227 486.194C445.681 485.068 445.888 483.857 445.832 482.644Z" fill="black"/>
<path d="M450.226 507.989C451.836 506.426 452.762 504.289 452.801 502.046C452.84 499.803 451.989 497.636 450.434 496.018C448.87 494.409 446.732 493.484 444.488 493.445C442.243 493.406 440.074 494.256 438.455 495.81L427.049 506.819L438.82 518.998L450.226 507.989Z" fill="#3F3D56"/>
<path d="M428.352 529.102L439.445 518.395L427.674 506.216L416.581 516.923C414.971 518.487 414.045 520.623 414.006 522.866C413.967 525.109 414.818 527.276 416.373 528.894C417.937 530.503 420.075 531.428 422.32 531.467C424.564 531.506 426.733 530.656 428.352 529.102Z" fill="#1141D2"/>
<path opacity="0.2" d="M422.934 531.449C420.909 531.275 419.015 530.375 417.602 528.916C416.047 527.298 415.196 525.13 415.235 522.887C415.274 520.644 416.2 518.508 417.81 516.945L428.278 506.841L427.674 506.216L416.581 516.923C414.971 518.487 414.045 520.623 414.006 522.866C413.967 525.109 414.818 527.276 416.373 528.894C417.219 529.766 418.243 530.446 419.375 530.887C420.507 531.328 421.721 531.519 422.934 531.449Z" fill="black"/>
<path d="M389.429 481.293C391.039 479.73 391.964 477.593 392.003 475.35C392.042 473.107 391.192 470.94 389.637 469.322C388.072 467.713 385.935 466.788 383.69 466.749C381.446 466.71 379.277 467.56 377.658 469.114L366.252 480.123L378.023 492.302L389.429 481.293Z" fill="#3F3D56"/>
<path d="M367.555 502.406L378.648 491.699L366.877 479.52L355.784 490.227C354.174 491.791 353.248 493.927 353.209 496.17C353.17 498.413 354.021 500.58 355.576 502.198C357.14 503.807 359.278 504.732 361.522 504.771C363.767 504.81 365.935 503.96 367.555 502.406Z" fill="#1141D2"/>
<path opacity="0.2" d="M362.137 504.753C360.112 504.579 358.218 503.679 356.804 502.22C355.25 500.602 354.399 498.434 354.438 496.191C354.477 493.948 355.402 491.812 357.012 490.249L367.481 480.145L366.877 479.52L355.784 490.227C354.174 491.791 353.248 493.927 353.209 496.17C353.17 498.413 354.021 500.58 355.576 502.198C356.421 503.07 357.445 503.75 358.578 504.191C359.71 504.632 360.924 504.823 362.137 504.753Z" fill="black"/>
<path d="M476.019 449.074C477.629 447.51 478.555 445.374 478.594 443.131C478.633 440.888 477.782 438.721 476.227 437.103C474.663 435.494 472.525 434.569 470.28 434.53C468.036 434.491 465.867 435.341 464.248 436.895L452.842 447.904L464.613 460.083L476.019 449.074Z" fill="#3F3D56"/>
<path d="M454.145 470.187L465.238 459.479L453.467 447.301L442.374 458.008C440.764 459.571 439.838 461.708 439.799 463.951C439.76 466.194 440.611 468.361 442.166 469.979C443.73 471.588 445.868 472.513 448.112 472.552C450.357 472.591 452.526 471.741 454.145 470.187Z" fill="#1141D2"/>
<path opacity="0.2" d="M448.727 472.533C446.702 472.36 444.808 471.46 443.394 470C441.84 468.382 440.989 466.215 441.028 463.972C441.067 461.729 441.992 459.592 443.602 458.029L454.071 447.925L453.467 447.301L442.374 458.008C440.764 459.571 439.838 461.708 439.799 463.951C439.76 466.194 440.611 468.361 442.166 469.979C443.011 470.851 444.035 471.531 445.168 471.971C446.3 472.412 447.514 472.604 448.727 472.533Z" fill="black"/>
<path d="M456.773 515.844C455.229 514.216 453.102 513.265 450.858 513.199C448.615 513.133 446.436 513.957 444.798 515.491C443.169 517.034 442.217 519.159 442.151 521.402C442.085 523.644 442.909 525.821 444.444 527.458L455.321 538.989L467.65 527.375L456.773 515.844Z" fill="#3F3D56"/>
<path d="M477.633 537.958L467.054 526.743L454.725 538.357L465.304 549.573C466.849 551.2 468.975 552.151 471.219 552.218C473.463 552.284 475.642 551.46 477.28 549.926C478.909 548.382 479.86 546.257 479.926 544.015C479.993 541.773 479.168 539.595 477.633 537.958Z" fill="#1141D2"/>
<path opacity="0.2" d="M479.915 543.401C479.717 545.422 478.794 547.304 477.316 548.699C475.678 550.233 473.499 551.056 471.255 550.99C469.011 550.924 466.885 549.973 465.34 548.345L455.357 537.762L454.725 538.358L465.304 549.573C466.849 551.201 468.975 552.151 471.219 552.218C473.463 552.284 475.642 551.46 477.28 549.926C478.163 549.092 478.855 548.077 479.31 546.951C479.765 545.824 479.971 544.614 479.915 543.401Z" fill="black"/>
<path d="M396.897 514.924C395.352 513.296 393.226 512.345 390.982 512.279C388.738 512.212 386.559 513.036 384.921 514.57C383.292 516.114 382.341 518.239 382.275 520.481C382.208 522.724 383.033 524.901 384.568 526.538L395.445 538.069L407.774 526.455L396.897 514.924Z" fill="#3F3D56"/>
<path d="M417.757 537.038L407.178 525.823L394.849 537.437L405.428 548.652C406.972 550.28 409.099 551.231 411.343 551.297C413.587 551.363 415.765 550.539 417.403 549.005C419.032 547.462 419.984 545.337 420.05 543.095C420.117 540.852 419.292 538.675 417.757 537.038Z" fill="#1141D2"/>
<path opacity="0.2" d="M420.039 542.48C419.841 544.501 418.918 546.383 417.44 547.778C415.802 549.312 413.623 550.136 411.379 550.07C409.135 550.003 407.009 549.052 405.464 547.425L395.481 536.841L394.849 537.437L405.428 548.652C406.972 550.28 409.099 551.231 411.343 551.297C413.587 551.363 415.765 550.539 417.403 549.005C418.286 548.171 418.979 547.156 419.434 546.03C419.889 544.904 420.095 543.693 420.039 542.48Z" fill="black"/>
<path d="M413.751 484.551C413.752 487.366 412.779 490.094 410.998 492.275C409.217 494.455 406.737 495.954 403.977 496.516C402.364 496.842 400.703 496.842 399.09 496.516C396.331 495.953 393.851 494.454 392.07 492.274C390.289 490.094 389.316 487.366 389.316 484.551C389.316 481.737 390.289 479.009 392.07 476.828C393.851 474.648 396.331 473.149 399.09 472.586C400.703 472.26 402.364 472.26 403.977 472.586C406.737 473.149 409.217 474.647 410.998 476.828C412.779 479.008 413.752 481.737 413.751 484.551Z" fill="#1141D2"/>
<path opacity="0.2" d="M403.977 472.586V496.516C402.364 496.842 400.703 496.842 399.09 496.516V472.586C400.703 472.26 402.364 472.26 403.977 472.586Z" fill="black"/>
<path d="M419.278 435.762C419.279 438.577 418.306 441.305 416.525 443.485C414.744 445.666 412.264 447.164 409.504 447.727C407.891 448.053 406.23 448.053 404.617 447.727C401.858 447.164 399.378 445.665 397.597 443.485C395.816 441.304 394.843 438.576 394.843 435.762C394.843 432.947 395.816 430.219 397.597 428.039C399.378 425.859 401.858 424.36 404.617 423.797C406.23 423.471 407.891 423.471 409.504 423.797C412.264 424.36 414.744 425.858 416.525 428.038C418.306 430.219 419.279 432.947 419.278 435.762Z" fill="#1141D2"/>
<path opacity="0.2" d="M409.504 423.797V447.727C407.891 448.053 406.23 448.053 404.617 447.727V423.797C406.23 423.471 407.891 423.471 409.504 423.797Z" fill="black"/>
<path d="M419.278 505.724C419.279 508.539 418.306 511.267 416.525 513.448C414.744 515.628 412.264 517.126 409.504 517.689C407.891 518.015 406.23 518.015 404.617 517.689C401.858 517.126 399.378 515.627 397.597 513.447C395.816 511.267 394.843 508.539 394.843 505.724C394.843 502.91 395.816 500.181 397.597 498.001C399.378 495.821 401.858 494.322 404.617 493.759C406.23 493.433 407.891 493.433 409.504 493.759C412.264 494.322 414.744 495.82 416.525 498.001C418.306 500.181 419.279 502.909 419.278 505.724Z" fill="#1141D2"/>
<path opacity="0.2" d="M409.504 493.759V517.689C407.891 518.015 406.23 518.015 404.617 517.689V493.759C406.23 493.433 407.891 493.433 409.504 493.759Z" fill="black"/>
<path d="M449.677 539.785C449.678 542.599 448.705 545.328 446.924 547.508C445.143 549.688 442.662 551.187 439.903 551.75C438.29 552.075 436.629 552.075 435.016 551.75C432.256 551.186 429.777 549.688 427.995 547.507C426.214 545.327 425.242 542.599 425.242 539.785C425.242 536.97 426.214 534.242 427.995 532.062C429.777 529.881 432.256 528.383 435.016 527.819C436.629 527.494 438.29 527.494 439.903 527.819C442.662 528.382 445.143 529.881 446.924 532.061C448.705 534.242 449.678 536.97 449.677 539.785Z" fill="#1141D2"/>
<path opacity="0.2" d="M439.903 527.819V551.75C438.29 552.075 436.629 552.075 435.016 551.75V527.819C436.629 527.494 438.29 527.494 439.903 527.819Z" fill="black"/>
<path d="M476.531 477.117C478.559 479.07 479.85 481.663 480.185 484.458C480.52 487.253 479.878 490.077 478.368 492.453C477.484 493.84 476.331 495.035 474.977 495.97C472.656 497.564 469.855 498.308 467.048 498.077C464.242 497.845 461.601 496.652 459.573 494.699C457.545 492.746 456.255 490.152 455.92 487.358C455.585 484.563 456.226 481.739 457.735 479.363C458.62 477.976 459.773 476.781 461.127 475.846C463.448 474.251 466.248 473.507 469.055 473.738C471.863 473.97 474.503 475.164 476.531 477.117Z" fill="#1141D2"/>
<path opacity="0.2" d="M461.127 475.846L478.368 492.453C477.484 493.84 476.331 495.035 474.977 495.97L457.735 479.362C458.62 477.976 459.773 476.781 461.127 475.846Z" fill="black"/>
<path d="M480.215 503.813C482.244 505.766 483.535 508.359 483.869 511.154C484.204 513.949 483.563 516.773 482.053 519.15C481.169 520.536 480.015 521.731 478.662 522.666C476.341 524.26 473.54 525.005 470.733 524.773C467.926 524.541 465.286 523.348 463.258 521.395C461.23 519.442 459.94 516.849 459.605 514.054C459.27 511.259 459.911 508.435 461.42 506.059C462.305 504.672 463.458 503.477 464.812 502.542C467.132 500.947 469.933 500.203 472.74 500.434C475.547 500.666 478.188 501.86 480.215 503.813Z" fill="#1141D2"/>
<path opacity="0.2" d="M464.812 502.542L482.053 519.149C481.169 520.536 480.015 521.731 478.662 522.666L461.42 506.059C462.305 504.672 463.458 503.477 464.812 502.542Z" fill="black"/>
<path d="M370.596 510.257C372.624 512.21 373.915 514.803 374.25 517.598C374.585 520.393 373.943 523.217 372.434 525.593C371.549 526.98 370.396 528.175 369.042 529.11C366.721 530.704 363.921 531.448 361.114 531.217C358.307 530.985 355.666 529.792 353.639 527.839C351.611 525.886 350.32 523.292 349.985 520.498C349.651 517.703 350.292 514.879 351.801 512.502C352.685 511.116 353.839 509.921 355.192 508.986C357.513 507.391 360.314 506.646 363.121 506.878C365.928 507.11 368.569 508.303 370.596 510.257Z" fill="#1141D2"/>
<path opacity="0.2" d="M355.192 508.986L372.434 525.593C371.549 526.98 370.396 528.175 369.042 529.11L351.801 512.502C352.685 511.116 353.838 509.921 355.192 508.986Z" fill="black"/>
<path opacity="0.2" d="M331.161 290.993H326.555V325.053H331.161V290.993Z" fill="black"/>
<path opacity="0.2" d="M357.875 290.993H353.269V325.053H357.875V290.993Z" fill="black"/>
<path opacity="0.2" d="M384.589 290.993H379.983V325.053H384.589V290.993Z" fill="black"/>
<path opacity="0.2" d="M411.303 290.993H406.697V325.053H411.303V290.993Z" fill="black"/>
<path opacity="0.2" d="M438.017 290.993H433.411V325.053H438.017V290.993Z" fill="black"/>
<path opacity="0.2" d="M464.731 290.993H460.125V325.053H464.731V290.993Z" fill="black"/>
<path opacity="0.2" d="M491.445 290.993H486.839V325.053H491.445V290.993Z" fill="black"/>
</svg>
