<svg width="716" height="614" viewBox="0 0 716 614" fill="none" xmlns="http://www.w3.org/2000/svg">
<path d="M97.3748 414.501C138.881 414.501 172.529 345.733 172.529 260.903C172.529 176.074 138.881 107.306 97.3748 107.306C55.8684 107.306 22.2208 176.074 22.2208 260.903C22.2208 345.733 55.8684 414.501 97.3748 414.501Z" fill="#FFB9B9"/>
<path d="M96.6848 262.496C100.434 195.637 107.987 150.475 108.063 150.026L106.424 149.748C106.348 150.197 98.7814 195.431 95.0265 262.377C91.5613 324.165 90.7253 417.622 106.424 511.966L108.063 511.693C92.3917 417.509 93.2257 324.193 96.6848 262.496Z" fill="#3F3D56"/>
<path d="M164.545 229.754L96.5941 266.183L97.3786 267.651L165.33 231.222L164.545 229.754Z" fill="#3F3D56"/>
<path d="M25.6443 248.012L24.8602 249.48L92.8211 285.892L93.6052 284.423L25.6443 248.012Z" fill="#3F3D56"/>
<path d="M618.5 398.533C672.348 398.533 716 309.319 716 199.267C716 89.2147 672.348 0 618.5 0C564.653 0 521.001 89.2147 521.001 199.267C521.001 309.319 564.653 398.533 618.5 398.533Z" fill="#FFB8B8"/>
<path d="M617.316 201.308C622.18 114.555 631.981 55.9559 632.08 55.374L630.526 55.1104C630.428 55.6927 620.614 114.36 615.744 201.195C611.249 281.339 610.165 402.561 630.526 524.931L632.08 524.672C611.744 402.453 612.827 281.366 617.316 201.308Z" fill="#3F3D56"/>
<path d="M705.78 159.112L617.625 206.373L618.368 207.765L706.523 160.504L705.78 159.112Z" fill="#3F3D56"/>
<path d="M525.306 182.799L524.562 184.191L612.73 231.428L613.474 230.036L525.306 182.799Z" fill="#3F3D56"/>
<path d="M501.03 452.503C521.149 452.503 537.458 419.17 537.458 378.052C537.458 336.934 521.149 303.601 501.03 303.601C480.911 303.601 464.601 336.934 464.601 378.052C464.601 419.17 480.911 452.503 501.03 452.503Z" fill="#E6E6E6"/>
<path d="M500.998 381.26L501.213 381.663L534.15 364.005L533.407 362.613L501.066 379.952C502.856 346.958 506.516 324.809 506.59 324.373L505.036 324.109C504.956 324.585 500.607 350.887 499.063 388.946L466.445 371.459L465.701 372.851L498.638 390.509L499.031 389.773C497.796 421.185 498.489 460.463 505.036 499.81L506.59 499.551C499.452 456.65 499.295 413.83 500.998 381.26Z" fill="#3F3D56"/>
<path d="M685.61 541.278C491.577 479.754 315.634 483.032 202.204 496.615C79.3169 511.332 1.33861 540.965 0.565609 541.263L0 539.789C0.775311 539.491 78.9371 509.787 202.017 495.048C274.415 486.388 347.463 484.517 420.208 489.457C510.516 495.58 599.772 512.471 686.085 539.774L685.61 541.278Z" fill="#3F3D56"/>
<path d="M249.413 523.891C249.413 523.891 249.957 512.47 261.113 513.797L249.413 523.891Z" fill="#3F3D56"/>
<path d="M246.261 513.022C249.344 513.022 251.844 510.518 251.844 507.43C251.844 504.341 249.344 501.837 246.261 501.837C243.177 501.837 240.678 504.341 240.678 507.43C240.678 510.518 243.177 513.022 246.261 513.022Z" fill="#6C63FF"/>
<path d="M246.929 516.847H245.353V527.897H246.929V516.847Z" fill="#3F3D56"/>
<path d="M452.718 526.259C452.718 526.259 453.263 514.837 464.418 516.165L452.718 526.259Z" fill="#3F3D56"/>
<path d="M449.566 515.39C452.65 515.39 455.15 512.886 455.15 509.797C455.15 506.709 452.65 504.205 449.566 504.205C446.483 504.205 443.983 506.709 443.983 509.797C443.983 512.886 446.483 515.39 449.566 515.39Z" fill="#6C63FF"/>
<path d="M450.234 519.215H448.658V530.265H450.234V519.215Z" fill="#3F3D56"/>
<path d="M117.816 506.526C117.816 506.526 118.36 495.105 129.516 496.432L117.816 506.526Z" fill="#3F3D56"/>
<path d="M114.664 495.657C117.748 495.657 120.247 493.153 120.247 490.065C120.247 486.976 117.748 484.472 114.664 484.472C111.581 484.472 109.081 486.976 109.081 490.065C109.081 493.153 111.581 495.657 114.664 495.657Z" fill="#6C63FF"/>
<path d="M115.332 499.482H113.756V510.532H115.332V499.482Z" fill="#3F3D56"/>
<path d="M203.709 491.529C203.709 491.529 204.253 480.108 215.408 481.435L203.709 491.529Z" fill="#3F3D56"/>
<path d="M200.557 480.661C203.64 480.661 206.14 478.157 206.14 475.068C206.14 471.979 203.64 469.476 200.557 469.476C197.473 469.476 194.973 471.979 194.973 475.068C194.973 478.157 197.473 480.661 200.557 480.661Z" fill="#6C63FF"/>
<path d="M201.224 484.485H199.648V495.536H201.224V484.485Z" fill="#3F3D56"/>
<path d="M418.834 512.84C418.834 512.84 419.378 501.419 430.534 502.747L418.834 512.84Z" fill="#3F3D56"/>
<path d="M415.682 501.972C418.766 501.972 421.265 499.468 421.265 496.379C421.265 493.291 418.766 490.787 415.682 490.787C412.599 490.787 410.099 493.291 410.099 496.379C410.099 499.468 412.599 501.972 415.682 501.972Z" fill="#6C63FF"/>
<path d="M416.35 505.797H414.774V516.847H416.35V505.797Z" fill="#3F3D56"/>
<path d="M661.147 489.945L693.58 538.114L663.384 568.36L659.47 560.519L666.18 544.836C666.18 544.836 665.062 530.273 661.147 526.352C657.233 522.431 639.898 498.907 639.898 498.907L661.147 489.945Z" fill="#FFB8B8"/>
<path d="M619.767 334.234C619.767 334.234 625.917 343.984 613.056 385.992C613.056 385.992 673.047 487.408 663.541 494.13C654.034 500.851 628.31 515.726 621.6 511.245C614.889 506.764 566.085 354.958 566.085 354.958L619.767 334.234Z" fill="#2F2E41"/>
<path d="M687.709 529.433L697.495 539.235C702.527 544.276 705.882 551.557 696.376 557.719C686.87 563.88 653.878 586.844 642.694 579.563C631.51 572.281 656.115 565.56 656.115 565.56C656.115 565.56 660.183 550.45 662.343 553.804C664.502 557.158 664.502 563.88 664.502 563.88L687.709 529.433Z" fill="#2F2E41"/>
<path d="M569.44 516.27C569.44 516.27 551.546 549.317 551.546 553.237C551.546 557.158 552.665 568.36 552.665 568.36L518.554 576.762L506.811 571.161L510.726 561.079C510.726 561.079 531.975 553.797 536.448 539.795C540.922 525.792 545.955 511.229 545.955 511.229L569.44 516.27Z" fill="#FFB8B8"/>
<path d="M590.13 187.485C603.101 187.485 613.616 176.952 613.616 163.96C613.616 150.968 603.101 140.436 590.13 140.436C577.159 140.436 566.644 150.968 566.644 163.96C566.644 176.952 577.159 187.485 590.13 187.485Z" fill="#FFB8B8"/>
<path d="M583.979 184.124L595.192 216.395L619.767 205.409C619.767 205.409 602.992 179.643 602.992 176.283L583.979 184.124Z" fill="#FFB8B8"/>
<path d="M580.624 298.947H610.261C610.261 298.947 631.51 331.433 619.208 365.6C617.324 370.832 615.454 378.161 613.587 386.826C609.295 406.754 605.021 433.747 600.641 458.552C594.488 493.393 588.127 523.916 581.212 524.47C567.232 525.591 540.047 525.404 540.047 519.802C540.047 514.201 558.257 352.158 558.257 352.158L562.171 345.436L562.911 316.159C563.027 311.539 564.948 307.149 568.259 303.931C571.571 300.713 576.01 298.924 580.624 298.947Z" fill="#2F2E41"/>
<path d="M551.267 552.957C551.267 552.957 557.697 563.88 556.02 571.721C554.342 579.563 551.546 578.442 539.244 579.563C526.942 580.683 485.003 580.683 485.003 572.841C485.003 565 517.719 554.816 517.857 557.948C517.995 561.079 519.113 567.24 515.758 568.36C512.403 569.481 515.479 568.64 515.479 568.64L551.267 552.957Z" fill="#2F2E41"/>
<path d="M583.984 368.858C583.984 368.858 581.551 408.646 565.327 396.801C549.103 384.956 571.65 363.56 571.65 363.56L583.984 368.858Z" fill="white"/>
<path d="M616.365 316.456C617.145 316.808 618.006 316.941 618.855 316.841C619.704 316.74 620.51 316.409 621.187 315.885C622.168 315.113 622.821 313.998 623.016 312.764C625.361 299.219 628.217 261.668 629.862 242.681C631.926 218.855 621.616 200.401 621.53 200.289L615.454 191.921C614.823 191.046 613.915 190.412 612.878 190.12C611.841 189.829 610.736 189.897 609.743 190.315C609.743 190.315 590.774 210.027 590.704 210.789C590.407 214.057 588.149 221.299 576.382 233.086C563.507 245.982 563.436 257.238 563.721 260.38C563.74 260.587 563.749 260.793 563.75 261C563.725 262.409 563.916 263.815 564.317 265.167C569.709 282.196 565.486 302.585 558.704 323.867C558.447 324.828 558.495 325.846 558.841 326.779C559.187 327.713 559.814 328.515 560.636 329.075C562.616 330.425 560.241 328.422 560.948 329.289C565.622 335.026 572.348 327.031 580.042 318.307C582.722 315.268 585.76 311.823 589.34 308.237C594.262 303.306 603.668 314.558 608.041 314.558C610.918 314.592 613.756 315.24 616.365 316.456Z" fill="white"/>
<path d="M618.973 208.977C618.973 208.977 631.257 219.354 624.278 232.811C617.3 246.268 618.227 256.194 618.227 256.194C618.227 256.194 616.369 348.641 594.563 344.149L584.644 371.579L566.73 365.103L577.089 340.909C577.089 340.909 568.792 340.392 571.216 334.729C572.919 330.752 582.093 287.593 587.403 262.254C589.653 251.516 591.21 243.978 591.21 243.978C591.21 243.978 598.268 206.177 618.973 208.977Z" fill="white"/>
<path opacity="0.2" d="M621.549 255.957L614.643 301.349L618.369 252.812L621.549 255.957Z" fill="black"/>
<path d="M564.507 153.537C564.507 153.537 560.558 122.758 592.775 132.851C592.775 132.851 615.784 128.622 623.33 157.451L630.97 187.67L627.246 185.64L625.511 189.441L619.477 190.972L616.894 185.838L615.645 192.072L566.224 197.007C566.224 197.007 588.359 183.895 588.71 160.395L584.494 164.858L564.507 153.537Z" fill="#2F2E41"/>
<path opacity="0.2" d="M601.259 460.322L612.279 386.77L603.317 466.172L601.259 460.322Z" fill="black"/>
<path d="M619.269 145.6C626.133 145.6 631.696 140.027 631.696 133.153C631.696 126.278 626.133 120.705 619.269 120.705C612.406 120.705 606.842 126.278 606.842 133.153C606.842 140.027 612.406 145.6 619.269 145.6Z" fill="#2F2E41"/>
<path d="M606.464 130.105C606.669 126.947 608.067 123.986 610.375 121.824C612.683 119.663 615.726 118.464 618.886 118.471C618.629 118.439 618.375 118.399 618.113 118.382C616.484 118.277 614.85 118.493 613.305 119.02C611.759 119.547 610.333 120.374 609.106 121.453C607.88 122.533 606.878 123.843 606.158 125.311C605.437 126.778 605.013 128.373 604.908 130.005C604.803 131.637 605.02 133.273 605.547 134.821C606.074 136.369 606.9 137.797 607.978 139.025C609.057 140.253 610.366 141.256 611.831 141.976C613.296 142.697 614.889 143.122 616.518 143.226C616.78 143.243 617.037 143.236 617.296 143.237C614.162 142.839 611.296 141.259 609.284 138.82C607.271 136.38 606.263 133.264 606.464 130.105Z" fill="#2F2E41"/>
<path opacity="0.2" d="M583.806 270.102L572.872 328.798L587.044 263.967L583.806 270.102Z" fill="black"/>
<path d="M584.487 180.913L578.115 185.726C571.552 182.417 566.63 174.763 564.841 167.458L571.785 163.948C572.331 171.4 577.611 176.353 584.487 180.913Z" fill="white"/>
<path d="M587.134 165.009H571.256C571.115 165.009 570.981 164.953 570.881 164.854C570.782 164.754 570.726 164.619 570.726 164.479C570.726 164.338 570.782 164.203 570.881 164.104C570.981 164.004 571.115 163.948 571.256 163.948H587.134C587.274 163.948 587.409 164.004 587.508 164.104C587.607 164.203 587.663 164.338 587.663 164.479C587.663 164.619 587.607 164.754 587.508 164.854C587.409 164.953 587.274 165.009 587.134 165.009Z" fill="white"/>
<path d="M583.958 180.913C583.872 180.913 583.787 180.892 583.71 180.851C583.634 180.811 583.569 180.752 583.52 180.68C583.472 180.609 583.441 180.526 583.432 180.44C583.423 180.354 583.435 180.267 583.467 180.186L587.701 169.583C587.727 169.519 587.765 169.46 587.814 169.409C587.862 169.359 587.92 169.32 587.984 169.292C588.048 169.264 588.117 169.25 588.186 169.249C588.256 169.248 588.325 169.261 588.39 169.287C588.454 169.313 588.513 169.351 588.563 169.4C588.613 169.448 588.652 169.507 588.68 169.571C588.707 169.635 588.721 169.704 588.722 169.773C588.723 169.843 588.71 169.912 588.683 169.977L584.449 180.58C584.41 180.678 584.342 180.763 584.255 180.822C584.167 180.881 584.064 180.913 583.958 180.913Z" fill="white"/>
<path d="M588.202 171.273C590.347 171.273 592.085 168.835 592.085 165.827C592.085 162.819 590.347 160.381 588.202 160.381C586.057 160.381 584.319 162.819 584.319 165.827C584.319 168.835 586.057 171.273 588.202 171.273Z" fill="#FFB8B8"/>
<path d="M314.565 182.232L355.924 191.712L373.399 158.699L338.034 144.869L314.565 182.232Z" fill="#2F2E41"/>
<path d="M336.539 359.944C336.539 359.944 323.244 390.462 323.244 399.34C323.244 399.34 328.507 423.477 326.845 430.135L321.028 442.62L308.841 437.626L305.518 404.334L306.072 351.066L336.539 359.944Z" fill="#FFB9B9"/>
<path d="M344.017 177.393C344.017 177.393 345.125 195.704 342.909 201.252C340.694 206.801 351.219 217.344 351.219 217.344L367.837 195.704C367.837 195.704 356.758 184.606 359.528 172.399L344.017 177.393Z" fill="#FFB9B9"/>
<path d="M309.395 304.18C309.395 304.18 293.331 334.143 308.841 331.924C324.352 329.704 319.09 303.348 319.09 303.348" fill="#E6E6E6"/>
<path d="M319.089 303.348L324.352 250.913L324.075 219.009L311.888 221.227V250.635L309.395 304.18" fill="#FFB9B9"/>
<path d="M305.795 433.742L329.615 424.309L332.384 471.473C332.384 471.473 337.37 485.899 335.708 491.448C335.708 491.448 336.816 500.88 334.046 501.435C331.276 501.99 323.521 503.1 322.967 502.545C322.413 501.99 322.413 500.326 322.413 500.326C322.413 500.326 316.874 504.21 316.32 508.649C316.32 508.649 293.054 515.862 292.5 509.204C291.946 502.545 304.133 496.996 304.133 496.996L313.55 482.57L305.795 433.742Z" fill="#2F2E41"/>
<path d="M386.118 359.944C386.118 359.944 372.823 390.462 372.823 399.34C372.823 399.34 378.086 423.477 376.424 430.135L370.607 442.62L358.42 437.626L355.096 404.334L355.65 351.066L386.118 359.944Z" fill="#FFB9B9"/>
<path d="M356.204 433.742L380.024 424.309L382.794 471.473C382.794 471.473 387.78 485.899 386.118 491.448C386.118 491.448 387.226 500.88 384.456 501.435C381.686 501.99 373.931 503.1 373.377 502.545C372.823 501.99 372.823 500.326 372.823 500.326C372.823 500.326 367.283 504.21 366.73 508.649C366.73 508.649 343.464 515.862 342.91 509.204C342.356 502.545 354.543 496.996 354.543 496.996L363.96 482.57L356.204 433.742Z" fill="#2F2E41"/>
<path d="M367.287 164.634C367.285 169.003 365.675 173.219 362.764 176.474C359.854 179.728 355.847 181.794 351.511 182.275C347.175 182.756 342.814 181.618 339.263 179.08C335.712 176.542 333.22 172.782 332.263 168.519C331.972 167.244 331.826 165.941 331.83 164.634C331.833 159.926 333.702 155.412 337.026 152.085C340.351 148.757 344.858 146.887 349.558 146.887C354.258 146.887 358.766 148.757 362.09 152.085C365.415 155.412 367.284 159.926 367.287 164.634Z" fill="#FFB9B9"/>
<path d="M351.773 200.143L365.529 192.987L371.715 197.923C371.715 197.923 386.672 197.368 392.211 204.027C397.751 210.685 400.798 227.609 400.798 227.609C400.798 227.609 382.517 223.724 384.733 239.261L381.409 230.383L378.363 237.874L341.248 250.636L324.629 222.337C324.629 222.337 313.55 219.008 309.672 226.776C309.672 226.776 310.503 198.755 321.305 197.923C328.57 197.363 334.046 197.368 334.046 197.368L340.14 196.259L344.042 194.871L351.773 200.143Z" fill="#575A89"/>
<path d="M375.316 260.901C375.316 260.901 404.398 348.292 396.089 360.499C396.089 360.499 365.068 376.035 303.025 354.95L328.23 257.016C343.712 253.845 359.407 255.14 375.316 260.901Z" fill="#2F2E41"/>
<path d="M375.316 260.901L383.501 232.727C373.682 222.032 382.157 198.315 382.157 198.315L370.31 195.772C370.31 195.772 358.42 227.886 346.233 224.002C334.046 220.118 340.694 195.149 340.694 195.149L329.615 196.259L324.629 215.679L328.23 257.017C343.247 255.726 358.996 257.228 375.316 260.901Z" fill="#E6E6E6"/>
<path d="M389.718 303.348L393.596 250.635L394.704 219.009L382.518 221.227V250.635L380.024 304.18" fill="#FFB9B9"/>
<path d="M380.024 304.18C380.024 304.18 363.96 334.143 379.47 331.924C394.981 329.704 389.719 303.348 389.719 303.348" fill="white"/>
<path d="M400.798 227.609C400.798 227.609 398.828 199.113 382.364 199.212V232.165C382.364 232.165 394.704 224.834 400.798 227.609Z" fill="#575A89"/>
<path d="M355.227 169.216C355.133 169.216 355.042 169.187 354.965 169.133C354.889 169.078 354.831 169.002 354.8 168.913C354.769 168.824 354.766 168.728 354.792 168.638C354.818 168.548 354.871 168.468 354.944 168.409L363.985 161.165C364.031 161.127 364.085 161.099 364.142 161.082C364.199 161.065 364.259 161.06 364.318 161.066C364.378 161.073 364.435 161.091 364.487 161.12C364.54 161.148 364.586 161.187 364.623 161.234C364.66 161.28 364.688 161.334 364.704 161.391C364.721 161.449 364.726 161.509 364.719 161.568C364.712 161.628 364.694 161.685 364.665 161.737C364.636 161.789 364.597 161.835 364.55 161.872L355.509 169.117C355.429 169.181 355.329 169.216 355.227 169.216Z" fill="white"/>
<path d="M355.911 180.083C355.712 180.327 355.513 180.572 355.306 180.798C352.907 181.887 350.296 182.428 347.663 182.38C345.029 182.332 342.44 181.697 340.082 180.521C337.724 179.345 335.658 177.657 334.033 175.581C332.408 173.505 331.265 171.092 330.688 168.519L339.254 166.94L355.911 168.519C352.096 173.173 352.557 174.785 355.911 180.083Z" fill="white"/>
<path d="M339.548 139.779C339.548 139.779 330.386 141.505 328.268 152.951C327.936 154.881 327.876 156.848 328.088 158.795C328.3 160.998 327.993 165.651 323.217 171.131C320.101 174.684 317.197 178.42 314.521 182.317L324.094 184.87L328.372 168.982C330.446 161.279 333.64 153.924 337.853 147.154L337.941 147.012C337.941 147.012 341.121 155.523 349.643 156.689L347.016 153.224C347.016 153.224 356.978 158.992 362.623 160.755C363.267 160.956 363.844 161.329 364.292 161.835C364.74 162.34 365.042 162.959 365.165 163.623C365.288 164.288 365.228 164.973 364.991 165.606C364.754 166.239 364.349 166.795 363.82 167.214C363.78 167.246 363.739 167.277 363.697 167.309C359.546 170.467 351.076 178.004 354.422 185.295C357.768 192.585 353.866 193.914 353.866 193.914L361.061 191.173L364.355 189.76L364.022 192.199L380.099 192.536C380.099 192.536 384.443 192.51 376.726 180.894C376.726 180.894 374.864 176.539 376.393 173.211C377.62 170.691 378.231 167.915 378.175 165.112C377.689 153.402 372.764 129.577 339.548 139.779Z" fill="#2F2E41"/>
<path d="M114.021 473.357C114.021 473.357 114.021 548.705 96.7565 568.469C96.7565 568.469 93.0569 578.35 91.8237 582.056C91.1342 584.166 90.3104 586.228 89.3573 588.232V593.173C89.3573 593.173 56.0613 589.467 52.3617 580.821L58.5276 573.41C58.5276 573.41 59.7608 572.174 58.5276 568.469C57.2944 564.763 60.994 564.763 60.994 564.763L69.6263 544.999L68.3931 463.475L74.5591 351.07L127.586 348.599L114.021 473.357Z" fill="#2F2E41"/>
<path d="M86.891 585.762C86.891 585.762 95.5234 611.701 86.891 612.936C78.2587 614.172 3.03425 615.407 4.26743 605.525C5.50062 595.643 30.1644 596.879 30.1644 596.879L56.0613 580.821L86.891 585.762Z" fill="#2F2E41"/>
<path d="M163.349 351.069C163.349 351.069 165.815 367.127 155.95 384.42C146.084 401.713 152.25 459.769 152.25 459.769L239.806 536.353C239.806 536.353 222.542 565.998 216.376 564.763C210.21 563.528 112.788 484.473 112.788 484.473L74.5592 356.01L163.349 351.069Z" fill="#2F2E41"/>
<path d="M238.603 533.08C238.603 533.08 265.098 539.663 261.518 547.628C257.938 555.592 218.709 619.895 211.036 613.562C203.364 607.228 217.609 587.023 217.609 587.023L217.932 556.517L238.603 533.08Z" fill="#2F2E41"/>
<path d="M143.618 121.32C143.627 127.828 141.394 134.139 137.295 139.188C134.054 143.211 129.775 146.27 124.923 148.033C120.071 149.796 114.83 150.195 109.767 149.189C107.232 148.698 104.778 147.852 102.479 146.677C98.8262 144.833 95.6154 142.219 93.0668 139.014C90.5181 135.81 88.6919 132.091 87.7137 128.113C87.1626 125.891 86.8858 123.61 86.8896 121.32C86.8896 113.785 89.8779 106.559 95.1972 101.231C100.516 95.9027 107.731 92.9094 115.254 92.9094C122.776 92.9094 129.991 95.9027 135.31 101.231C140.629 106.559 143.618 113.785 143.618 121.32Z" fill="#A0616A"/>
<path d="M137.571 131.342L136.317 167.901L112.451 177.346C112.451 177.346 110.111 139.912 106.807 137.837C103.503 135.762 137.571 131.342 137.571 131.342Z" fill="#A0616A"/>
<path d="M106.622 181.844C106.622 181.844 139.918 148.493 148.55 149.728C157.183 150.963 157.183 154.669 157.183 157.139C157.183 159.61 154.716 160.845 157.183 162.08C159.649 163.316 162.116 162.08 162.116 165.786C162.116 169.492 184.313 206.548 176.914 247.311C169.515 288.073 160.882 307.837 164.582 330.071C168.281 352.305 165.815 357.245 165.815 357.245C165.815 357.245 73.326 364.657 72.0928 356.01C70.8597 347.364 75.7924 352.305 69.6264 346.128C63.4605 339.952 65.9269 339.952 65.9269 336.247C65.9269 332.541 93.057 181.844 106.622 181.844Z" fill="white"/>
<path d="M123.887 349.834C123.887 349.834 109.088 385.656 97.9897 377.009C86.891 368.363 102.922 338.717 102.922 338.717L123.887 349.834Z" fill="white"/>
<path d="M159.649 184.314C159.649 184.314 188.623 187.637 177.836 240.943C167.048 294.249 125.12 356.01 125.12 356.01L96.7566 342.423L133.752 269.545L125.12 223.842C125.12 223.842 120.187 180.609 159.649 184.314Z" fill="#E6E6E6"/>
<path opacity="0.2" d="M134.369 270.163L93.6733 338.1L97.373 341.805L134.369 270.163Z" fill="black"/>
<path opacity="0.2" d="M155.909 301.822L123.27 355.392H134.369L155.909 301.822Z" fill="black"/>
<path opacity="0.2" d="M82.1809 399.175L80.5414 399.802L112.993 485.027L114.632 484.4L82.1809 399.175Z" fill="black"/>
<path d="M106.797 188.626C107.766 188.626 108.551 187.839 108.551 186.869C108.551 185.898 107.766 185.112 106.797 185.112C105.828 185.112 105.043 185.898 105.043 186.869C105.043 187.839 105.828 188.626 106.797 188.626Z" fill="#D0CDE1"/>
<path d="M91.8853 236.07C92.0727 236.07 92.2552 236.01 92.4059 235.899C92.5567 235.787 92.6679 235.63 92.7231 235.451L107.635 187.129C107.669 187.018 107.681 186.902 107.671 186.787C107.66 186.672 107.627 186.56 107.573 186.458C107.52 186.356 107.446 186.266 107.358 186.192C107.269 186.118 107.167 186.062 107.056 186.028C106.946 185.994 106.831 185.982 106.716 185.993C106.601 186.004 106.489 186.037 106.387 186.091C106.286 186.145 106.195 186.218 106.122 186.307C106.048 186.396 105.993 186.499 105.959 186.609L91.0476 234.933C91.0072 235.064 90.9982 235.203 91.0212 235.339C91.0443 235.474 91.0987 235.602 91.1802 235.713C91.2616 235.824 91.3679 235.914 91.4903 235.976C91.6128 236.038 91.7481 236.07 91.8853 236.07V236.07Z" fill="#D0CDE1"/>
<path d="M109.567 143.08L102.478 149.834C95.1785 146.154 88.1275 136.239 86.1376 128.113L95.4375 124.21C96.0447 132.498 101.918 138.008 109.567 143.08Z" fill="white"/>
<path d="M111.334 127.748C111.306 127.748 111.278 127.746 111.25 127.742L94.7662 125.383C94.6896 125.372 94.6159 125.346 94.5494 125.307C94.4828 125.268 94.4246 125.215 94.3782 125.154C94.3317 125.092 94.2979 125.021 94.2787 124.946C94.2594 124.871 94.2551 124.793 94.266 124.716C94.2769 124.64 94.3027 124.566 94.342 124.499C94.3814 124.433 94.4335 124.374 94.4953 124.328C94.5571 124.281 94.6274 124.247 94.7023 124.228C94.7772 124.209 94.8552 124.204 94.9317 124.215L111.416 126.574C111.563 126.595 111.697 126.671 111.791 126.787C111.884 126.903 111.931 127.05 111.92 127.199C111.91 127.348 111.844 127.487 111.735 127.589C111.626 127.691 111.483 127.747 111.334 127.748Z" fill="white"/>
<path d="M108.978 143.079C108.875 143.079 108.774 143.053 108.685 143.001C108.596 142.95 108.521 142.876 108.47 142.787C108.418 142.699 108.39 142.598 108.389 142.495C108.388 142.392 108.415 142.29 108.465 142.201L113.927 132.462C113.965 132.394 114.015 132.334 114.076 132.286C114.137 132.238 114.207 132.203 114.281 132.182C114.356 132.161 114.434 132.155 114.51 132.164C114.587 132.173 114.662 132.197 114.729 132.235C114.797 132.273 114.856 132.324 114.904 132.386C114.951 132.447 114.987 132.516 115.007 132.591C115.028 132.666 115.034 132.744 115.025 132.821C115.015 132.898 114.991 132.972 114.952 133.04L109.491 142.779C109.44 142.87 109.365 142.946 109.275 142.999C109.185 143.052 109.082 143.079 108.978 143.079Z" fill="white"/>
<path d="M128.092 138.39C125.796 137.174 123.128 136.923 120.643 136.167C111.751 133.463 105.795 123.394 107.696 114.283C108.048 113.115 108.205 111.896 108.163 110.677C107.831 107.978 105.074 106.237 102.431 105.619C99.7877 105.001 96.9753 105.09 94.4489 104.096C90.548 102.561 87.9569 98.5456 87.3951 94.3855C86.8334 90.2253 88.0658 85.9824 90.0703 82.2957L91.025 85.0477C92.4812 83.813 93.5621 82.1937 94.1448 80.3741C95.2299 80.5567 96.25 81.0154 97.1074 81.706C97.9649 82.3967 98.6309 83.2963 99.0418 84.3186C100.574 85.2239 100.795 81.5064 102.488 80.958C103.197 80.7284 103.926 81.1646 104.601 81.48C108.012 83.0736 111.975 81.7111 115.635 80.8278C121.971 79.3054 128.576 79.2976 134.916 80.805C139.128 81.8113 143.297 83.5636 146.311 86.6778C148.786 89.2353 150.328 92.5424 151.641 95.8526C154.874 104.001 157.009 112.819 155.942 121.522C155.054 128.644 152.079 135.343 147.394 140.773C144.953 143.59 136.99 153.417 132.623 151.742C127.137 149.636 134.556 141.813 128.092 138.39Z" fill="#2F2E41"/>
</svg>
